<?xml version="1.0" encoding="UTF-8"?>
<svg version="1.1" xmlns="http://www.w3.org/2000/svg" width="1060" height="1060">
<path d="M0 0 C3.74445752 0.00421005 7.48889616 -0.00325393 11.23334892 -0.00915251 C17.78208844 -0.01787736 24.33079669 -0.01923991 30.87954057 -0.01564924 C40.61841233 -0.01032362 50.35725401 -0.01645622 60.09612251 -0.02473217 C78.50575996 -0.03994717 96.91538363 -0.04167977 115.32502605 -0.03920914 C129.54590845 -0.03737408 143.76678634 -0.03914056 157.98766817 -0.04343358 C160.0332309 -0.04403599 162.07879364 -0.04463719 164.12435638 -0.04523719 C167.20712212 -0.04614448 170.28988785 -0.04705314 173.37265359 -0.04796954 C202.02397156 -0.0563955 230.67528784 -0.06073728 259.32660688 -0.05656282 C260.94572046 -0.05632825 260.94572046 -0.05632825 262.59754341 -0.05608895 C268.06797889 -0.05528321 273.53841435 -0.05443744 279.00884982 -0.05357565 C280.09522608 -0.05340456 281.18160234 -0.05323347 282.3008991 -0.0530572 C284.49781494 -0.05271054 286.69473079 -0.05236201 288.89164664 -0.05201161 C323.06503225 -0.04665608 357.23839206 -0.05458152 391.41177286 -0.07304517 C429.83851335 -0.09378274 468.26523785 -0.10448446 506.69198425 -0.10046969 C510.79310903 -0.10007436 514.89423381 -0.09971281 518.9953586 -0.0993723 C520.50996956 -0.09923621 520.50996956 -0.09923621 522.05517873 -0.09909736 C537.26790763 -0.09793361 552.48062034 -0.10456277 567.6933452 -0.11518422 C585.00558075 -0.12725949 602.31778072 -0.12876851 619.63001682 -0.11639406 C629.30540519 -0.10978692 638.98070839 -0.1113467 648.65608987 -0.12498257 C655.1354648 -0.13327303 661.61477645 -0.13047037 668.09414632 -0.1190073 C671.77493088 -0.11279599 675.45555024 -0.11103118 679.13632478 -0.12287064 C702.8089129 -0.19371218 725.7742009 1.06149107 748.45986856 8.26313647 C749.60866495 8.6261687 749.60866495 8.6261687 750.78066934 8.99653491 C776.8387644 17.44869097 799.30112378 31.92074275 819.45986856 50.26313647 C820.20494669 50.93602709 820.95002481 51.60891772 821.71768106 52.30219897 C849.4618844 78.69850579 870.24083843 120.44847713 871.55310015 159.00224643 C871.59053018 162.28780983 871.59625837 165.57205221 871.59129633 168.8578287 C871.59437528 170.75450965 871.59437528 170.75450965 871.59751643 172.68950739 C871.6030649 176.19862094 871.60241401 179.70770999 871.60073884 183.21682652 C871.60000629 187.03496368 871.60503411 190.85309402 871.60931386 194.67122825 C871.61688676 202.24391064 871.61908656 209.81658597 871.61964291 217.38927175 C871.62055727 226.46027427 871.62722699 235.53127029 871.63398974 244.60227 C871.65004564 266.52748925 871.65595277 288.4527078 871.66073848 310.37793188 C871.66307507 320.7529238 871.66667782 331.12791517 871.67043386 341.50290666 C871.68326967 377.02662412 871.69398831 412.55034127 871.69743646 448.074061 C871.69765809 450.30385231 871.69787988 452.53364362 871.69810181 454.76343493 C871.69832245 456.99857852 871.69854294 459.23372212 871.69876326 461.46886572 C871.69920581 465.95286092 871.69965293 470.43685611 871.70010294 474.92085131 C871.70021233 476.03262053 871.70032172 477.14438975 871.70043442 478.28984895 C871.7040639 514.32744989 871.71997968 550.3650307 871.7432933 586.40262393 C871.76790386 624.51478764 871.78160989 662.62693985 871.78280438 700.73911174 C871.78297583 704.92512139 871.78319126 709.11113104 871.78343881 713.29714068 C871.78349458 714.32783363 871.78355035 715.35852657 871.78360781 716.42045264 C871.78475726 732.98941804 871.79577034 749.55836275 871.81032587 766.12732117 C871.82471105 782.79090428 871.82791647 799.45446093 871.81988589 816.11804854 C871.81543899 826.00974664 871.81925252 835.90135918 871.8351244 845.79304598 C871.8449099 852.41181658 871.84366223 859.03052757 871.83368817 865.64929769 C871.82832174 869.4131406 871.82750238 873.17681982 871.84019689 876.94064885 C871.90086418 896.12656254 871.67191831 915.14916153 865.64736856 933.57563647 C865.3887504 934.39701098 865.13013223 935.21838549 864.86367715 936.06465014 C853.85674214 970.34881931 832.89039614 1001.99479958 803.45986856 1023.26313647 C802.49178262 1023.97469897 801.52369669 1024.68626147 800.52627481 1025.41938647 C770.87306947 1046.61580253 735.51848262 1059.45001186 698.89361776 1059.39456423 C697.63224094 1059.39661687 696.37086413 1059.3986695 695.07126377 1059.40078434 C691.57078718 1059.40633267 688.07033514 1059.40568194 684.56985557 1059.40400675 C680.76109582 1059.40327418 676.95234292 1059.40830204 673.14358611 1059.41258177 C665.58957872 1059.42015457 658.0355784 1059.42235446 650.48156761 1059.42291082 C641.4329649 1059.42382518 632.38436871 1059.43049491 623.33576881 1059.43725764 C601.4651258 1059.45331323 579.5944835 1059.45922058 557.72383566 1059.46400639 C547.37508514 1059.46634295 537.02633517 1059.46994568 526.67758508 1059.47370177 C491.24486894 1059.48653735 455.81215312 1059.49725616 420.37943472 1059.50070437 C418.15538448 1059.500926 415.93133424 1059.50114779 413.707284 1059.50136972 C411.47789236 1059.50159036 409.24850072 1059.50181085 407.01910908 1059.50203117 C402.54664414 1059.50247372 398.0741792 1059.50292084 393.60171426 1059.50337084 C392.49280397 1059.50348024 391.38389368 1059.50358963 390.24138004 1059.50370233 C354.29379292 1059.50733208 318.34622598 1059.52324898 282.39864658 1059.54656121 C244.38300957 1059.57116945 206.36738409 1059.58487769 168.35173888 1059.58607229 C164.17670028 1059.58624374 160.00166169 1059.58645917 155.82662309 1059.58670672 C154.79862902 1059.58676249 153.77063496 1059.58681826 152.71148955 1059.58687572 C136.18323929 1059.58802535 119.65500977 1059.59903992 103.12676651 1059.61359378 C86.50576857 1059.62797594 69.88479715 1059.63118606 53.26379469 1059.6231538 C43.39632589 1059.61870554 33.52894284 1059.62252592 23.66148535 1059.63839231 C17.06014168 1059.64817302 10.45885781 1059.64693466 3.85751463 1059.63695608 C0.10280486 1059.63158624 -3.65174076 1059.63078153 -7.40643665 1059.6434648 C-26.50620843 1059.70396161 -44.80405147 1059.0407815 -63.22763144 1053.51313647 C-64.09573447 1053.25854663 -64.96383749 1053.00395678 -65.85824667 1052.74165209 C-74.07764131 1050.24767837 -81.80732094 1046.97758693 -89.54013144 1043.26313647 C-90.61778769 1042.75782397 -91.69544394 1042.25251147 -92.80575644 1041.73188647 C-108.30232167 1034.26174733 -122.08585339 1024.08291709 -134.54013144 1012.26313647 C-135.3249288 1011.53513842 -135.3249288 1011.53513842 -136.12558066 1010.79243334 C-150.54921879 997.35534708 -161.55564879 981.76607375 -170.54013144 964.26313647 C-171.0150704 963.34999682 -171.0150704 963.34999682 -171.4996041 962.41840991 C-183.54596889 938.97989544 -188.7118599 912.78964951 -188.6715592 886.57128485 C-188.67361184 885.32061735 -188.67566447 884.06994985 -188.67777931 882.78138333 C-188.68331272 879.32023858 -188.68267968 875.85911873 -188.68100172 872.39797098 C-188.68026767 868.62831183 -188.68530046 864.85865954 -188.68957673 861.08900335 C-188.697141 853.61682699 -188.699349 846.14465779 -188.69990579 838.67247801 C-188.700821 829.72001364 -188.70749326 820.76755584 -188.71425261 811.81509431 C-188.73029967 790.17784953 -188.73621464 768.54060547 -188.74100136 746.90335581 C-188.74333883 736.66243777 -188.74694168 726.42152029 -188.75069674 716.18060269 C-188.76353175 681.10831864 -188.77425046 646.03603489 -188.77769934 610.96374854 C-188.77792097 608.76277888 -188.77814276 606.56180921 -188.77836469 604.36083955 C-188.77858533 602.15462233 -188.77880581 599.9484051 -188.77902614 597.74218788 C-188.77946869 593.31630942 -188.7799158 588.89043095 -188.78036581 584.46455249 C-188.78047521 583.3671949 -188.7805846 582.26983731 -188.7806973 581.13922647 C-188.78432641 545.57247713 -188.80024119 510.00574819 -188.82355618 474.43900666 C-188.8481746 436.81493312 -188.86187313 399.19087124 -188.86306726 361.56678941 C-188.86323871 357.4332759 -188.86345413 353.29976239 -188.86370169 349.16624888 C-188.86375746 348.14849956 -188.86381323 347.13075024 -188.86387069 346.08216003 C-188.86501945 329.73147784 -188.87602662 313.38081666 -188.89058875 297.03014155 C-188.90498402 280.58183038 -188.90817367 264.133546 -188.90014877 247.68523026 C-188.89570662 237.92523758 -188.89949619 228.16533167 -188.91538727 218.40535046 C-188.92518942 211.87061283 -188.92390948 205.33593549 -188.91395105 198.80119831 C-188.90859643 195.08784645 -188.90772601 191.3746603 -188.92045977 187.66132265 C-189.09615746 132.82163307 -173.45217372 86.65456388 -134.54013144 47.26313647 C-98.03267851 11.13596951 -49.82251728 -0.0857354 0 0 Z " fill="#ADADAD" transform="translate(188.54013143945485,0.736863530240953)"/>
<path d="M0 0 C4.2241241 1.83765235 8.58692877 2.92239344 13.046875 4.03515625 C14.73596582 4.46892929 16.42477147 4.90381439 18.11328125 5.33984375 C18.9139502 5.54577148 19.71461914 5.75169922 20.53955078 5.96386719 C25.79126212 7.33083098 30.9215849 8.71894976 35.875 10.94921875 C40.35599154 12.90023242 45.0196564 14.03881046 49.734375 15.28515625 C57.77673925 17.48190666 64.97684801 20.28564991 72.421875 24 C76.37472098 25.83192036 80.28747777 26.90493332 84.5078125 27.92578125 C87.26851322 28.68134145 89.36174229 29.95340111 91.734375 31.53515625 C96.1148411 33.46238423 96.1148411 33.46238423 100.57421875 35.19140625 C109.02291046 38.64690388 116.55552432 47.55966684 120.734375 55.53515625 C128.00725065 74.54040744 122.88260019 96.94865982 118.68359375 116.078125 C117.65159865 120.81964215 116.84901931 125.58430209 116.12890625 130.3828125 C115.734375 132.53515625 115.734375 132.53515625 114.734375 134.53515625 C114.60662697 135.92902921 114.50604258 137.32547437 114.421875 138.72265625 C114.02008003 142.66526941 112.97781064 145.30955762 110.828125 148.6953125 C109.17024506 151.48410341 108.0986907 154.44987411 106.9375 157.47265625 C106.00455801 159.84741767 105.03623515 162.19092393 104.03125 164.53515625 C100.94047553 171.78110499 98.23886469 178.7295158 96.546875 186.44921875 C95.54459132 190.25596925 94.12491814 193.81933995 92.671875 197.47265625 C90.2924781 203.48962035 89.06530968 209.06227386 88.29296875 215.51171875 C87.52169516 219.68630448 85.78752812 223.11472785 83.90234375 226.890625 C82.37695653 230.34442817 81.74083766 233.72217823 81.19140625 237.44140625 C80.734375 239.53515625 80.734375 239.53515625 78.734375 242.53515625 C78.18160908 244.50023908 77.68709978 246.48214351 77.234375 248.47265625 C76.39757534 252.14275039 75.42745201 255.19150625 73.734375 258.53515625 C73.59 259.71078125 73.445625 260.88640625 73.296875 262.09765625 C72.734375 265.53515625 72.734375 265.53515625 71.296875 266.90234375 C69.18018067 269.11428932 68.86155493 271.13794411 68.171875 274.09765625 C66.94270833 279.32682292 66.94270833 279.32682292 64.734375 281.53515625 C64.3321875 282.77265625 64.3321875 282.77265625 63.921875 284.03515625 C62.92213436 286.98176025 61.80584244 289.356344 60.34765625 292.078125 C57.67656731 297.36251836 56.14241888 302.61750351 54.734375 308.34765625 C52.83948938 315.69187808 50.76779007 322.68940725 47.8125 329.68359375 C45.92764674 334.66889405 44.86298197 339.83298954 43.8046875 345.04296875 C43.64871094 345.80222656 43.49273438 346.56148438 43.33203125 347.34375 C43.01570359 348.89401696 42.70847155 350.44616641 42.41015625 352 C41.3602426 357.0105635 39.75060518 360.31479504 36.734375 364.53515625 C36.00218884 366.37213576 35.31436365 368.227416 34.671875 370.09765625 C29.70031712 382.25537507 20.59663217 390.23585501 9.8984375 397.3828125 C7.35560558 399.11256607 5.11892761 400.84147909 2.859375 402.91015625 C-0.52117647 405.91134409 -4.13813841 407.74059686 -8.265625 409.53515625 C-9.0390625 409.88578125 -9.8125 410.23640625 -10.609375 410.59765625 C-25.72560038 417.1033735 -47.92633225 419.95777281 -63.65234375 414.328125 C-68.17132845 412.95689347 -72.83591539 412.5709104 -77.51171875 412 C-87.70479152 410.73779848 -97.61651602 409.07018726 -107.20703125 405.3125 C-109.33113885 404.51041762 -111.47288172 403.83448061 -113.640625 403.16015625 C-123.61364267 399.8073064 -130.81255039 394.96322054 -138.265625 387.53515625 C-138.95140625 386.87257813 -139.6371875 386.21 -140.34375 385.52734375 C-147.63676631 377.95854111 -148.56090541 369.72577238 -148.859375 359.515625 C-149.07837493 356.07343378 -149.90193506 352.90417214 -150.7590332 349.56762695 C-152.29867916 342.98450395 -152.73699545 336.77625264 -152.77734375 330.03515625 C-152.79520432 328.88800644 -152.81306488 327.74085663 -152.83146667 326.5589447 C-152.88522219 322.88438801 -152.91923221 319.20994435 -152.953125 315.53515625 C-152.98789561 313.00201776 -153.02386993 310.46889551 -153.06103516 307.93579102 C-153.23743736 295.11138155 -153.27146057 282.29719396 -153.140625 269.47265625 C-153.06397455 261.37848465 -153.54296922 254.29280263 -155.5390625 246.4296875 C-156.75233245 239.92629966 -156.76482653 233.34601818 -156.88647461 226.74291992 C-156.92140015 225.25949097 -156.92140015 225.25949097 -156.95703125 223.74609375 C-156.96935791 222.86228027 -156.98168457 221.9784668 -156.99438477 221.06787109 C-157.15345956 218.49358731 -157.15345956 218.49358731 -158.24804688 216.09912109 C-162.71319814 204.84839686 -160.5577879 188.57346996 -160.76831055 176.65771484 C-160.82776289 173.30557319 -160.8929263 169.95357982 -160.95898438 166.6015625 C-161.06213791 161.22885011 -161.15001714 155.85609398 -161.22460938 150.48291016 C-161.25083936 148.59778631 -161.27912266 146.71268921 -161.31005859 144.82763672 C-161.48127324 133.77055255 -160.99126002 123.0101386 -159.640625 112.03515625 C-159.55359314 111.30501312 -159.46656128 110.57487 -159.37689209 109.82260132 C-158.0664774 98.87762368 -156.5361569 87.96453726 -154.75616455 77.0859375 C-154.51756962 75.62496685 -154.28359138 74.1632326 -154.05487061 72.70068359 C-151.96295735 59.47364617 -149.00461716 44.88491573 -139.390625 34.97265625 C-138.60800293 34.11401978 -138.60800293 34.11401978 -137.80957031 33.23803711 C-133.89649138 29.00932889 -129.73030641 25.17339663 -125.265625 21.53515625 C-124.68039062 20.98988281 -124.09515625 20.44460937 -123.4921875 19.8828125 C-118.31850932 15.0693271 -112.60250774 11.3797074 -106.6328125 7.6484375 C-104.43988653 6.27213478 -102.2722953 4.85433477 -100.13671875 3.390625 C-97.57949147 1.73799512 -95.29292702 0.59007441 -92.453125 -0.46484375 C-89.24551094 -1.67660906 -86.20184803 -2.98795244 -83.140625 -4.52734375 C-58.58801755 -15.29304511 -23.88058932 -10.71198684 0 0 Z " fill="#FEFEFE" transform="translate(646.265625,20.46484375)"/>
<path d="M0 0 C1.79102269 1.08439765 3.5827416 2.1676459 5.375 3.25 C10.3302861 6.39086789 14.52241259 10.01806112 18.8046875 14.01171875 C21.36480884 16.33040516 24.10968579 18.11244786 27 20 C38.04012258 28.18491847 49.06505423 38.135541 51.578125 52.24609375 C52.75364082 62.70600763 53.01406389 73.12711094 49 83 C48.53013672 84.24136719 48.53013672 84.24136719 48.05078125 85.5078125 C46.20880823 90.26927634 44.16303659 94.93224035 42.06640625 99.5859375 C40.83489697 102.37374972 39.66560438 105.18401388 38.5 108 C36.71324023 112.31117266 34.88335536 116.59526794 32.9609375 120.84765625 C32.30086722 122.32610634 31.66125714 123.81380906 31.0390625 125.30859375 C29.51536944 128.92279368 27.99963503 132.17919563 25.625 135.3125 C22.67671747 139.2164949 20.67226566 143.49284818 18.54296875 147.8828125 C17.07244061 150.85365162 15.49947172 153.73614096 13.875 156.625 C8.79780664 165.86469653 5.74867623 175.5517564 3 185.6875 C0.18305258 195.01863831 0.18305258 195.01863831 -2.53515625 197.2734375 C-4.76678426 199.90378305 -4.65659749 202.49105447 -5 205.875 C-5.49859056 210.7674199 -6.2205625 213.92830454 -9 218 C-10.74231192 221.89457959 -11.84827061 225.89696405 -13 230 C-13.350625 230.99 -13.70125 231.98 -14.0625 233 C-15.1093543 236.00519545 -15.1093543 236.00519545 -15.34765625 239.2890625 C-16.05386386 243.30641117 -17.32376217 245.86972016 -19.375 249.375 C-21.47833659 253.10810247 -23.35658481 256.57277119 -24.5625 260.6875 C-25.86295089 265.0865561 -28.09053599 268.59525974 -30.52734375 272.45703125 C-31.98226772 274.96938008 -33.00364653 277.40274555 -34 280.125 C-35.88681235 285.14077617 -38.67592523 288.84944763 -42 293 C-42.61875 293.928125 -43.2375 294.85625 -43.875 295.8125 C-52.64644064 308.96966096 -61.70897746 318.48701594 -75 327 C-75.68835938 327.44601562 -76.37671875 327.89203125 -77.0859375 328.3515625 C-86.87194543 333.94967184 -99.98827158 334.55521782 -111 335 C-112.47146484 335.07927734 -112.47146484 335.07927734 -113.97265625 335.16015625 C-122.41541319 335.40078005 -130.73425075 334.55608013 -139.125 333.6875 C-140.92348389 333.51105957 -140.92348389 333.51105957 -142.75830078 333.33105469 C-143.89251465 333.20504883 -145.02672852 333.07904297 -146.1953125 332.94921875 C-147.72696045 332.78425903 -147.72696045 332.78425903 -149.28955078 332.6159668 C-152.25718461 331.94155316 -153.65955012 330.88306785 -156 329 C-158.67751105 328.279568 -161.28831117 327.66781628 -164 327.125 C-170.42274021 325.73890018 -176.16645329 323.86009762 -182.171875 321.14453125 C-185.12366527 319.94995314 -187.94899992 319.27564168 -191.0625 318.625 C-197.67185932 317.10640047 -202.46601093 313.78378168 -208 310 C-212.19256435 307.4545145 -216.25537208 305.17641668 -220.9375 303.6875 C-225.49217868 302.09110767 -228.76200927 299.18545846 -232.421875 296.109375 C-234.90813017 294.07516622 -237.45612473 292.284708 -240.125 290.5 C-247.70741761 285.24238024 -253.61229874 279.67478314 -257 271 C-257.42152344 269.92234375 -257.84304688 268.8446875 -258.27734375 267.734375 C-260.52504981 261.71443181 -262.49278221 255.82384381 -263.54296875 249.4765625 C-263.99381096 246.80317251 -263.99381096 246.80317251 -265.01953125 243.484375 C-269.01591121 227.62806837 -266.92168098 209.66888355 -260 195 C-258.98292969 193.48599609 -258.98292969 193.48599609 -257.9453125 191.94140625 C-255.82584294 188.73666613 -254.76383375 185.85034473 -253.625 182.1875 C-253.19895687 180.86164446 -252.77183001 179.53613679 -252.34375 178.2109375 C-252.12460938 177.52354492 -251.90546875 176.83615234 -251.6796875 176.12792969 C-248.10906419 164.94921101 -244.27388135 155.00550271 -238 145 C-237.17786805 143.48435184 -236.36468264 141.96380052 -235.5625 140.4375 C-233.0394817 135.84259912 -229.97310183 131.70427143 -226.84765625 127.50390625 C-225.46379057 125.62851957 -224.15047373 123.70072453 -222.875 121.75 C-220.04753643 117.60305344 -216.73395249 113.92151946 -213.375 110.19921875 C-209.00174164 105.30967295 -205.09747652 100.1579471 -201.1953125 94.88671875 C-198.82059442 91.76409124 -196.29981093 88.84172506 -193.6796875 85.92578125 C-191.86421726 83.84432351 -190.1802706 81.69181964 -188.5 79.5 C-182.07305739 71.16930824 -175.23382352 64.2498647 -167.0703125 57.62109375 C-166.02531115 56.76912441 -164.98105299 55.91624278 -163.9375 55.0625 C-163.41164307 54.63340332 -162.88578613 54.20430664 -162.34399414 53.76220703 C-159.46481054 51.36840131 -157.03002617 48.96223872 -154.75 46 C-150.04814407 40.31668871 -143.36615756 37.0336802 -137.11962891 33.29541016 C-133.74320624 31.23191111 -130.4665729 29.02628604 -127.1875 26.8125 C-125.9482153 25.9813254 -124.70863917 25.15058513 -123.46875 24.3203125 C-122.88222656 23.9274707 -122.29570312 23.53462891 -121.69140625 23.12988281 C-112.20852576 16.79518725 -102.62925297 11.50899091 -92.1796875 6.953125 C-90.80410459 6.35161563 -89.43347432 5.73852661 -88.0703125 5.109375 C-86.6415186 4.4533529 -85.20276683 3.81883476 -83.7578125 3.19921875 C-81.66886414 2.29085169 -79.60495591 1.32462151 -77.5546875 0.33203125 C-67.46932301 -4.27976926 -57.36846552 -6.13106823 -46.4375 -7.4375 C-45.74163788 -7.52112793 -45.04577576 -7.60475586 -44.3288269 -7.69091797 C-28.12800417 -9.58906213 -13.85050794 -9.80736164 0 0 Z " fill="#FEFEFE" transform="translate(387,617)"/>
<path d="M0 0 C2.42888802 0.8718109 4.70223204 1.34620534 7.2421875 1.76953125 C12.08565197 2.75037621 15.27529391 5.20260415 18.4921875 8.89453125 C19.53896118 10.53222556 20.53308789 12.2039971 21.4921875 13.89453125 C22.10835937 14.95285156 22.72453125 16.01117187 23.359375 17.1015625 C28.07821267 25.47621581 31.39680026 33.71864766 33.95849609 42.97314453 C34.46739235 44.80526416 35.00448378 46.62948258 35.54296875 48.453125 C40.58225612 65.59448474 44.01008723 82.37916916 45.67236328 100.1809082 C46.28942773 106.52216684 47.25583688 112.74221334 48.38427734 119.00976562 C49.58056312 125.88120687 50.22419193 132.77645258 50.7578125 139.72827148 C51.16634628 144.70438633 52.0648977 149.08857888 53.4921875 153.89453125 C54.03219947 157.74661663 54.43154237 161.59994969 54.83203125 165.46875 C55.26279252 168.91124719 56.05863631 172.15525458 56.9609375 175.50390625 C58.75386963 182.43072255 59.4262542 189.34346377 60.0546875 196.45703125 C60.28092522 198.93788948 60.51133338 201.41837124 60.74609375 203.8984375 C60.84220947 204.97939697 60.9383252 206.06035645 61.03735352 207.17407227 C61.41028634 210.22459468 61.90754134 213.17189655 62.4855957 216.18652344 C63.48026158 221.52781811 64.00486339 226.80041982 64.34375 232.21875 C64.40773483 233.18310471 64.47171967 234.14745941 64.53764343 235.14103699 C64.74095289 238.28749882 64.93101568 241.4345109 65.1171875 244.58203125 C65.18255707 245.66768372 65.24792664 246.75333618 65.3152771 247.87188721 C66.29564334 264.50549003 66.79105889 281.10756218 66.8046875 297.76953125 C66.80809143 298.74457611 66.81149536 299.71962097 66.81500244 300.72421265 C66.83522878 310.77063751 66.57319157 320.7301098 65.609375 330.734375 C65.53370804 331.53040131 65.45804108 332.32642761 65.38008118 333.14657593 C64.09425545 345.09571947 61.01540118 356.08401823 52.4921875 364.89453125 C51.61820313 365.83296875 50.74421875 366.77140625 49.84375 367.73828125 C45.12863678 372.70121508 40.65977458 376.81073771 34.4921875 379.89453125 C33.04500024 380.85932276 31.60820109 381.83980017 30.1796875 382.83203125 C20.45157912 389.29032394 11.28934405 392.21457331 -0.08331299 394.4133606 C-1.62567214 394.71946004 -3.16510732 395.04099634 -4.6999054 395.38299561 C-11.46152292 396.85514456 -18.15418897 397.46870236 -25.05078125 397.9296875 C-26.21861649 398.01327011 -27.38645172 398.09685272 -28.5896759 398.18296814 C-32.29115987 398.44699185 -35.99316466 398.70250105 -39.6953125 398.95703125 C-43.40805803 399.21649702 -47.1206581 399.4778075 -50.83308411 399.74180603 C-53.13454346 399.90503849 -55.43620418 400.06546339 -57.73808289 400.22267151 C-63.03931606 400.59461774 -68.249505 401.10433348 -73.5078125 401.89453125 C-76.96575507 402.13180253 -80.41746673 402.16990255 -83.8828125 402.20703125 C-84.77742188 402.23603516 -85.67203125 402.26503906 -86.59375 402.29492188 C-94.01199128 402.365007 -99.9327858 400.76808972 -105.77734375 396.0703125 C-109.72581721 391.30215594 -112.27074606 386.64998858 -114.5078125 380.89453125 C-115.0234375 379.80140625 -115.5390625 378.70828125 -116.0703125 377.58203125 C-120.8782876 365.24852992 -122.80844104 351.90107827 -122.79492188 338.72363281 C-122.80517143 337.15486137 -122.80517143 337.15486137 -122.81562805 335.55439758 C-122.8291167 333.30381633 -122.83823331 331.0532053 -122.84333801 328.80258942 C-122.85172419 325.21600609 -122.87232281 321.62966582 -122.89587402 318.04315186 C-122.94385667 310.41031521 -122.97687099 302.77745345 -123.0078125 295.14453125 C-123.04376794 286.32845261 -123.08622021 277.51249193 -123.14375305 268.69652557 C-123.16344252 265.20751708 -123.17206586 261.71860493 -123.18005371 258.22955322 C-123.24109768 245.52855844 -123.83105692 233.00238859 -125.04577637 220.35858154 C-128.43938394 183.71490855 -122.14611739 145.75221865 -117.36351013 109.46647644 C-115.775641 97.37909056 -114.34061678 85.37717801 -113.8515625 73.1875 C-113.52266511 70.03681254 -112.99310903 68.59458815 -111.5078125 65.89453125 C-110.80350108 63.57228356 -110.14223712 61.23683659 -109.5078125 58.89453125 C-108.70702575 55.99531767 -107.89090329 53.1006935 -107.0703125 50.20703125 C-106.86599609 49.46130859 -106.66167969 48.71558594 -106.45117188 47.94726562 C-105.30937004 43.95985175 -104.16126561 41.14574029 -101.5078125 37.89453125 C-100.73741919 35.8533011 -100.73741919 35.8533011 -100.1953125 33.70703125 C-98.52144219 28.41656033 -95.83141092 24.30242419 -92.5078125 19.89453125 C-91.99347656 19.20230469 -91.47914063 18.51007812 -90.94921875 17.796875 C-86.97284579 12.84786405 -82.49669283 9.6757457 -77.05859375 6.4375 C-74.74735767 5.03943224 -72.66407235 3.51491587 -70.5078125 1.89453125 C-62.19481926 -3.68861767 -51.44722149 -4.24106667 -41.6953125 -5.29296875 C-40.91978027 -5.37683838 -40.14424805 -5.46070801 -39.34521484 -5.54711914 C-25.53921025 -6.90891593 -12.97596095 -5.14032874 0 0 Z " fill="#FEFEFE" transform="translate(553.5078125,646.10546875)"/>
<path d="M0 0 C1.52848517 0.1810491 3.05714227 0.36065052 4.5859375 0.5390625 C12.3561907 1.53993889 18.94578523 2.46476645 25.17578125 7.59765625 C26.99352362 9.13202034 26.99352362 9.13202034 29.48046875 9.95703125 C36.0331709 12.66954516 40.47353603 19.23243128 43.91015625 25.203125 C45.04913497 27.2060432 45.04913497 27.2060432 47.1875 29.4375 C49.32923856 32.4654752 49.70792331 34.83335046 50.37890625 38.42578125 C51.08953585 41.37109512 52.16759056 43.97185731 53.375 46.75 C58.26179496 58.09997538 61.09875192 70.02724385 64 82 C64.19335938 82.68191406 64.38671875 83.36382812 64.5859375 84.06640625 C65.40311313 87.88246227 65.40710688 91.82275053 65.62109375 95.7109375 C65.86383377 98.96019734 65.86383377 98.96019734 67 101.70703125 C68.46528105 106.53215596 68.4291819 111.29518693 68.5625 116.3125 C68.62214555 118.30872228 68.68572581 120.30483225 68.75390625 122.30078125 C68.77783447 123.17903564 68.8017627 124.05729004 68.82641602 124.9621582 C68.77897309 126.99382014 68.77897309 126.99382014 70 128 C70.84866536 143.39021992 69.24921144 155.1586933 60 168 C56.88947725 171.31103579 53.53296819 174.15277875 50 177 C49.31421875 177.63808594 48.6284375 178.27617188 47.921875 178.93359375 C39.63510988 186.28730707 28.70912866 188.4794077 18 190 C15.66443537 190.99477753 13.33124929 191.99515117 11 193 C8.02564722 193.7982638 5.01940503 194.39812524 2 195 C0.33223294 195.34894819 -1.33448421 195.70296008 -3 196.0625 C-4.11375 196.29646484 -4.11375 196.29646484 -5.25 196.53515625 C-7.01441147 196.84711884 -7.01441147 196.84711884 -8 198 C-11.20536362 198.47930671 -14.41058178 198.87206832 -17.62890625 199.25 C-21.11109275 199.40362705 -21.11109275 199.40362705 -24 201 C-25.60103002 201.13247172 -27.20774605 201.19676659 -28.81381226 201.23414612 C-29.85632645 201.26076324 -30.89884064 201.28738037 -31.97294617 201.31480408 C-33.12704483 201.33926102 -34.28114349 201.36371796 -35.47021484 201.38891602 C-36.67854477 201.41832275 -37.88687469 201.44772949 -39.13182068 201.47802734 C-42.46138018 201.55801601 -45.7909849 201.63361426 -49.12068892 201.70718122 C-52.61793947 201.78535811 -56.11506688 201.86871224 -59.61221313 201.95140076 C-65.50540003 202.08997107 -71.3986635 202.22478248 -77.29199219 202.35717773 C-84.05876425 202.50921949 -90.82541006 202.66607705 -97.59200323 202.82587105 C-104.83255735 202.99682017 -112.07318821 203.16432716 -119.31384706 203.33077502 C-121.37651261 203.37840002 -123.43916345 203.42662177 -125.50181198 203.47497749 C-152.73946932 204.11141948 -152.73946932 204.11141948 -163.96219444 203.94384861 C-168.38406284 203.90128274 -172.66101113 204.21930654 -177.04068375 204.76203156 C-185.6088637 205.80267849 -194.38055228 205.7448319 -203 206 C-204.00595215 206.03013184 -205.0119043 206.06026367 -206.04833984 206.09130859 C-219.21880734 206.43201767 -232.13040854 206.09324249 -245 203 C-245.99 202.01 -245.99 202.01 -247 201 C-248.34068451 200.56066364 -249.69799416 200.17107385 -251.0625 199.8125 C-260.02039216 196.93677218 -266.27356103 190.1940188 -272 183 C-272.45117188 182.45859375 -272.90234375 181.9171875 -273.3671875 181.359375 C-276.67452093 177.12763161 -278.58100042 172.54698415 -280.49609375 167.55078125 C-281.83573151 164.38784431 -283.33614156 161.43374526 -284.9296875 158.39453125 C-288.04391336 152.21811857 -289.98851267 146.06255696 -291.6875 139.375 C-291.98221191 138.24634521 -292.27692383 137.11769043 -292.58056641 135.95483398 C-294.9429803 126.69535602 -296.73328605 117.46598645 -298 108 C-298.17660156 107.00484375 -298.35320313 106.0096875 -298.53515625 104.984375 C-299.87921342 96.0587915 -297.66926393 86.45054564 -293.0390625 78.73046875 C-283.6518508 66.160237 -268.39850811 60.59082867 -254 56 C-252.45765818 55.48116942 -250.91583079 54.96080102 -249.375 54.4375 C-247.91676285 53.9580407 -246.45841488 53.47891842 -245 53 C-243.16473982 52.38891886 -241.32950371 51.77776467 -239.49462891 51.16552734 C-237.52792613 50.50931782 -235.56084425 49.85425367 -233.59375 49.19921875 C-231.48850657 48.49670817 -229.38398751 47.79200728 -227.28125 47.08203125 C-224.01186094 45.97917227 -220.7610454 44.93292502 -217.4375 44 C-213.93903754 43.05776271 -213.93903754 43.05776271 -210.5 41.5 C-206.61273854 39.98283582 -202.82433693 39.53611963 -198.6875 39.0625 C-192.9787852 38.39488023 -188.18717896 37.26122861 -182.953125 34.90234375 C-180.11682697 34.03569713 -177.7765472 33.77291546 -174.83203125 33.5625 C-169.08382964 33.11843913 -163.93398005 31.73484284 -158.4375 30.0625 C-151.6330124 28.09028469 -145.12727555 26.56106648 -138.0625 26 C-129.03932971 25.25931471 -120.62379412 22.97797011 -111.9140625 20.5859375 C-105.14255053 18.73303621 -98.30715066 17.21025311 -91.44433594 15.73706055 C-87.3863173 14.84787023 -83.47332801 13.86632942 -79.5546875 12.48046875 C-75.37529518 11.03008183 -71.22038378 10.23511922 -66.86425781 9.50048828 C-61.99725209 8.65004831 -57.19106659 7.53561532 -52.375 6.4375 C-51.38371094 6.21642578 -50.39242187 5.99535156 -49.37109375 5.76757812 C-48.43136719 5.55423828 -47.49164062 5.34089844 -46.5234375 5.12109375 C-45.67700684 4.9295874 -44.83057617 4.73808105 -43.95849609 4.54077148 C-42.01224742 4.17671427 -42.01224742 4.17671427 -41 3 C-27.4617053 0.02817921 -13.77062781 -2.07009438 0 0 Z " fill="#FEFEFE" transform="translate(913,385)"/>
<path d="M0 0 C4.28664866 1.50967594 8.69946597 2.60752135 13.0859375 3.7890625 C16.42745906 4.85458872 19.31854662 6.22072562 22.41796875 7.8515625 C29.74060915 11.31588362 29.74060915 11.31588362 37.29296875 14.2265625 C45.11539101 17.1017444 52.73417085 20.95358485 58.73046875 26.7890625 C64.17617956 31.96448986 70.7255396 34.780337 77.45947266 37.92871094 C80.30446574 39.26928359 83.11011044 40.6851777 85.91796875 42.1015625 C88.46705295 43.37954003 91.01510951 44.65667753 93.58203125 45.8984375 C101.31080825 49.65505421 108.50314131 54.03776518 115.30078125 59.29296875 C117.70763998 61.06480755 120.19575112 62.64326155 122.73046875 64.2265625 C132.82953257 70.57694335 141.8854288 77.73173176 150.625 85.81640625 C151.19814941 86.3465332 151.77129883 86.87666016 152.36181641 87.42285156 C153.49780997 88.47581675 154.63170941 89.53104714 155.76318359 90.58886719 C158.88069304 93.49095056 162.07493476 96.20742063 165.41796875 98.8515625 C167.08463542 100.51822917 168.75130208 102.18489583 170.41796875 103.8515625 C173.06989876 106.20158048 175.73115466 108.53965829 178.40625 110.86328125 C179.07011719 111.51941406 179.73398437 112.17554688 180.41796875 112.8515625 C180.41796875 113.5115625 180.41796875 114.1715625 180.41796875 114.8515625 C180.97226562 115.10164062 181.5265625 115.35171875 182.09765625 115.609375 C184.82523194 117.06959229 187.11676072 118.80732332 189.54296875 120.7265625 C190.41179687 121.40460938 191.280625 122.08265625 192.17578125 122.78125 C194.41796875 124.8515625 194.41796875 124.8515625 195.47265625 126.984375 C196.71293114 129.43417416 197.96959345 129.65534399 200.41796875 130.8515625 C202.33855436 132.60768578 204.16747232 134.36707898 205.98046875 136.2265625 C206.46193359 136.70867187 206.94339844 137.19078125 207.43945312 137.6875 C212.90665221 143.22238105 215.19645203 147.5373235 217.41796875 154.8515625 C217.77375 155.87507812 218.12953125 156.89859375 218.49609375 157.953125 C222.61464754 170.56982148 223.69533855 185.35916176 218.41796875 197.8515625 C215.76705582 202.76388189 212.69423534 207.4042937 209.60009766 212.04492188 C208.06854916 214.38557839 206.67926818 216.79767424 205.29296875 219.2265625 C200.97955799 226.46038451 196.0229462 232.6321718 189.41796875 237.8515625 C188.19469499 239.13078641 187.00449665 240.4427537 185.85546875 241.7890625 C185.26121094 242.48515625 184.66695312 243.18125 184.0546875 243.8984375 C180.23227705 248.42036146 180.23227705 248.42036146 176.98046875 253.3515625 C175.13112596 256.31051096 172.90051966 258.39746489 170.41796875 260.8515625 C168.67830345 262.71682575 166.9496086 264.59236491 165.23046875 266.4765625 C164.75706055 266.9929126 164.28365234 267.5092627 163.79589844 268.04125977 C161.41561625 270.64127858 159.05432682 273.25516655 156.7265625 275.90234375 C145.95507165 288.05521663 145.95507165 288.05521663 140.3359375 289.3203125 C138.13933432 289.72079547 138.13933432 289.72079547 136.60546875 292.2265625 C133.9013955 295.47145041 131.29646764 296.30016294 127.41796875 297.8515625 C126.99257813 298.33625 126.5671875 298.8209375 126.12890625 299.3203125 C123.58853519 301.5938866 120.89285301 301.93534968 117.60546875 302.7265625 C111.87384894 304.14865091 111.87384894 304.14865091 107.16796875 307.4765625 C101.11446387 312.70458944 92.8667444 312.02936103 85.23046875 312.1015625 C84.47024414 312.11098877 83.71001953 312.12041504 82.92675781 312.13012695 C75.62724363 312.08794703 69.97993636 310.96559734 64.48046875 305.8515625 C63.70832031 305.1503125 62.93617188 304.4490625 62.140625 303.7265625 C60.41796875 301.8515625 60.41796875 301.8515625 60.41796875 299.8515625 C59.73734375 299.6246875 59.05671875 299.3978125 58.35546875 299.1640625 C51.04868641 295.89932997 46.3809335 290.9410246 41.41796875 284.8515625 C40.74378906 284.04074219 40.06960938 283.22992187 39.375 282.39453125 C36.38573909 278.74348275 33.56442405 275.1442562 31.11328125 271.109375 C28.2070886 266.38722743 24.84978901 262.07500142 21.41796875 257.7265625 C20.51304687 256.56833984 20.51304687 256.56833984 19.58984375 255.38671875 C16.98483921 252.06250643 14.36337458 248.76681379 11.62109375 245.5546875 C9.77652393 243.29149191 8.44998442 241.32111803 7.16796875 238.7265625 C3.67364864 232.1830586 -0.9247769 225.43964892 -6.234375 220.23046875 C-7.77826232 218.65078114 -8.57744485 217.15740411 -9.51953125 215.1640625 C-9.86242187 214.45507812 -10.2053125 213.74609375 -10.55859375 213.015625 C-11.20106325 211.65712078 -11.84193344 210.29785783 -12.48046875 208.9375 C-14.35417455 205.04595719 -16.45369278 201.45951814 -18.83203125 197.8515625 C-23.37775503 190.82900204 -26.93196464 183.36311047 -30.58203125 175.8515625 C-31.82543106 173.30659578 -33.07697279 170.76579513 -34.33203125 168.2265625 C-34.863125 167.14117188 -35.39421875 166.05578125 -35.94140625 164.9375 C-37.5329694 161.80072277 -37.5329694 161.80072277 -39.62890625 158.88671875 C-41.72748229 155.62553159 -42.87865308 152.59330996 -44.08203125 148.9140625 C-45.85043603 143.76520103 -47.74160362 139.4672574 -50.58203125 134.8515625 C-51.30376028 133.44167323 -52.01041353 132.02402667 -52.70703125 130.6015625 C-59.94450006 115.47064924 -59.94450006 115.47064924 -68.70703125 101.2265625 C-75.45624253 91.60941442 -79.72873163 80.04924325 -83.49609375 69 C-84.48362303 66.13687554 -85.56023539 63.34138322 -86.70703125 60.5390625 C-87.33290847 58.97691367 -87.95795102 57.41443009 -88.58203125 55.8515625 C-89.03449219 54.74941406 -89.03449219 54.74941406 -89.49609375 53.625 C-92.16867274 46.55640322 -93.23176619 38.84986146 -90.14453125 31.7265625 C-84.87774504 22.85809088 -77.60783931 17.86164174 -68.43066406 13.67773438 C-64.32579199 11.80434278 -60.78977181 9.68941856 -57.16748047 6.99804688 C-51.03537093 2.56374037 -43.76638906 0.00821775 -36.58203125 -2.1484375 C-35.42703125 -2.5403125 -34.27203125 -2.9321875 -33.08203125 -3.3359375 C-22.41536813 -5.81212715 -10.14815162 -3.76985745 0 0 Z " fill="#FEFEFE" transform="translate(672.58203125,597.1484375)"/>
<path d="M0 0 C1.23379395 0.17362061 2.46758789 0.34724121 3.73876953 0.52612305 C8.92260366 1.29788765 13.5435363 2.0483487 18.375 4.125 C23.99850727 6.12558805 29.70720817 7.83459468 35.43066406 9.52246094 C44.58541594 12.23072878 53.51618945 15.19703763 62.36450195 18.7824707 C66.21502322 20.33118816 69.94674843 21.61834496 74 22.5625 C83.38646558 24.87996588 92.14432893 30.17791827 100.375 35.125 C102.04756669 35.84649935 103.72146037 36.5653354 105.40625 37.2578125 C107.52627867 38.19163465 109.52315543 39.27633902 111.5625 40.375 C116.63316036 42.95303865 121.88060757 44.78494403 127.25 46.625 C134.75558143 49.19994751 142.1352472 51.86001344 149.375 55.125 C150.09042969 55.44726562 150.80585938 55.76953125 151.54296875 56.1015625 C160.23470992 60.04333093 168.58506946 64.02693948 176.5078125 69.3828125 C180.16431828 71.60461302 183.97799132 73.30840089 187.875 75.0625 C202.90415554 81.91799133 212.3284641 90.38073447 218.16210938 105.93139648 C221.5603388 116.14245946 221.01940672 126.51330239 220.50878906 137.13671875 C220.39264003 139.73099639 220.34375773 142.30993294 220.3359375 144.90625 C220.17335265 157.07961949 217.12481534 168.45792273 214.07470703 180.18725586 C213.37748111 183.11458295 212.85644693 186.03091342 212.37109375 189 C210.30318417 200.84715501 202.0012693 210.57159092 192.44921875 217.52734375 C187.38875425 220.39891354 181.67829569 221.29910383 176.0234375 222.40234375 C171.63856708 223.27086733 167.3236608 224.36015824 162.99609375 225.4765625 C152.47219009 227.36110188 141.79752277 227.24222401 131.14453125 227.07421875 C129.70082461 227.05488316 128.25711414 227.03583167 126.81340027 227.01704407 C123.79878591 226.97636574 120.78427871 226.93124424 117.76977539 226.88305664 C114.73824806 226.83498709 111.70675272 226.79326023 108.67504883 226.75805664 C91.70796903 226.56083582 74.87343374 226.0871354 57.96166992 224.56884766 C52.26824007 224.07307786 46.58700182 223.92180711 40.875 223.8125 C-0.15617146 222.53149751 -48.30239238 217.54930459 -78.80078125 186.94140625 C-93.45985291 170.88623253 -99.01974 150.05090322 -98.875 128.75 C-98.88273437 127.58855469 -98.89046875 126.42710937 -98.8984375 125.23046875 C-98.89585938 124.11542969 -98.89328125 123.00039063 -98.890625 121.8515625 C-98.88836914 120.84689941 -98.88611328 119.84223633 -98.88378906 118.80712891 C-98.61620445 116.03384159 -97.92047497 114.54862535 -96.625 112.125 C-96.25467574 110.50351123 -95.94962337 108.86633867 -95.6953125 107.22265625 C-95.5418335 106.259646 -95.38835449 105.29663574 -95.23022461 104.30444336 C-94.99251343 102.7615564 -94.99251343 102.7615564 -94.75 101.1875 C-94.40147488 99.02315735 -94.05117841 96.85909929 -93.69921875 94.6953125 C-93.52181152 93.6012207 -93.3444043 92.50712891 -93.16162109 91.37988281 C-92.34573265 86.43109992 -91.47359627 81.49457373 -90.5625 76.5625 C-90.41248535 75.71373291 -90.2624707 74.86496582 -90.10791016 73.99047852 C-89.16870976 68.97687981 -87.72406484 64.76804016 -85.625 60.125 C-85.01807071 57.88470358 -85.01807071 57.88470358 -84.6875 55.8125 C-83.82279826 51.60239479 -82.41949353 47.85527912 -80.73046875 43.91015625 C-79.55645059 41.0793638 -79.55645059 41.0793638 -78.67578125 37.87109375 C-75.75322632 28.14735151 -71.0609966 21.85112497 -64.06933594 14.62597656 C-62.83586316 13.3441323 -61.65071191 12.01608301 -60.4765625 10.6796875 C-45.45151393 -4.9392365 -19.36802426 -2.74188127 0 0 Z " fill="#FEFEFE" transform="translate(179.625,374.875)"/>
<path d="M0 0 C0.68602295 0.13913818 1.3720459 0.27827637 2.07885742 0.42163086 C16.685231 3.77317364 28.08205153 11.87159008 37 24 C37.94666752 25.76533493 38.84081702 27.55958965 39.6875 29.375 C42.12174662 34.37356748 44.77051841 39.17162422 47.625 43.9375 C48.18320435 44.87698486 48.18320435 44.87698486 48.75268555 45.83544922 C50.40216498 48.5627156 52.08140617 51.09789729 54.12109375 53.55078125 C56.26926889 56.35100123 57.27674374 58.92437306 58.4375 62.25 C60.17538332 66.96711186 62.08908934 71.2336594 64.6171875 75.56640625 C66.35065899 78.6171202 67.93248372 81.73702257 69.5 84.875 C69.95221924 85.77738403 69.95221924 85.77738403 70.41357422 86.69799805 C72.2219319 90.33877901 73.89262295 94.01707829 75.5 97.75 C77.19369413 101.60597697 79.19262246 104.72023627 81.75 108.0625 C84.90221296 112.34436867 85.53843386 115.25152516 85.703125 120.48046875 C86.36339676 126.08409093 89.71994658 131.03420368 92.75 135.6875 C94 138 94 138 94.3125 141.125 C95.49444009 147.78684412 99.28003724 153.42005585 103 159 C103.47189831 160.61793705 103.93965574 162.23723684 104.3828125 163.86328125 C106.62542561 171.62726462 109.78747218 178.76774908 113.484375 185.9375 C115.48388126 189.97773945 117.16545915 194.11894322 118.82421875 198.30859375 C119.93735185 201.026206 119.93735185 201.026206 121.51953125 203.47265625 C123.66534715 207.1358301 124.70018744 211.0206123 125.9375 215.0625 C126.99711906 217.99203505 128.39318999 220.34358023 130 223 C130.703125 225.18359375 130.703125 225.18359375 131.25 227.4375 C132.51296784 231.95581809 134.40026641 235.98058087 136.5625 240.125 C138.72840417 244.29448974 140.54411779 248.13704437 141.40234375 252.7734375 C142.09622597 255.3584889 143.17618776 257.70006877 144.27294922 260.13574219 C148.02548696 268.62142353 148.65196938 275.66868829 148 285 C148 286.09828125 148 287.1965625 148 288.328125 C147.86812701 294.88880625 146.73751838 298.55264582 142.03125 303.19140625 C141.3609375 303.78824219 140.690625 304.38507813 140 305 C139.3296875 305.62777344 138.659375 306.25554687 137.96875 306.90234375 C130.24681199 313.92633736 121.92491063 318.43714077 112.3125 322.3125 C103.34862519 325.99550798 94.77530958 330.56785569 86.78125 336.0546875 C80.30894528 339.48955097 71.11755017 339.0144288 64 338 C50.62861978 333.79437257 40.77849047 324.08217958 32.7109375 312.984375 C30.25662307 310.13781854 27.31672608 308.47397693 24.1328125 306.53125 C21.18464873 304.4146196 19.43270999 301.83962363 17.39453125 298.875 C15.33365968 296.10408024 12.67035875 294.16966648 10 292 C9.01983613 290.8939681 8.0623444 289.76754683 7.125 288.625 C4.96939735 286.01469992 2.72917944 283.84917239 0.125 281.6875 C-3.89046113 278.30161404 -6.93272236 274.45121431 -10.04296875 270.234375 C-12.15593423 267.82196731 -14.22854471 266.57200579 -17 265 C-18.34919532 263.34614767 -19.68133728 261.678298 -21 260 C-22.47378238 258.81456634 -23.94777896 257.62938683 -25.42578125 256.44921875 C-27.80219981 254.26149844 -29.57135624 251.70610813 -31.41015625 249.0625 C-33.40346581 246.4765849 -35.67837996 244.29641448 -38 242 C-45.33333333 234.66666667 -52.66666667 227.33333333 -60 220 C-60.87390381 219.12754639 -61.74780762 218.25509277 -62.64819336 217.35620117 C-64.36099305 215.64020099 -66.06125012 213.91165413 -67.75390625 212.17578125 C-68.69007875 211.22132923 -69.6262768 210.26690229 -70.5625 209.3125 C-71.03107422 208.82716797 -71.49964844 208.34183594 -71.98242188 207.84179688 C-74.47403877 205.31533219 -76.68770564 203.33271138 -80 202 C-80 201.34 -80 200.68 -80 200 C-80.72574219 199.75121094 -81.45148438 199.50242187 -82.19921875 199.24609375 C-90.38333974 195.60490185 -96.02736752 187.98345024 -101.015625 180.8203125 C-106.00755385 173.72548448 -111.54962383 167.35073197 -117.8125 161.375 C-121.80751332 157.47457613 -124.32009911 154.21581834 -126.24609375 148.99609375 C-127.72426811 145.08237821 -130.19941792 141.87563665 -133 138.8125 C-140.63474063 128.07614598 -142.45444604 112.26016824 -140.640625 99.46484375 C-137.99453699 87.61108463 -131.30861864 75.67238216 -122.87890625 67.01171875 C-120.92205992 64.91655064 -119.39715099 62.76171022 -117.8125 60.375 C-114.65418069 55.74279834 -111.15382395 51.49331793 -107.5 47.25 C-106.96608643 46.62399902 -106.43217285 45.99799805 -105.88208008 45.35302734 C-99.79490352 38.36628176 -93.89498361 33.52305823 -85.375 29.8125 C-83.90255115 29.15478902 -82.431167 28.49468845 -80.9609375 27.83203125 C-80.27459229 27.52289795 -79.58824707 27.21376465 -78.88110352 26.89526367 C-76.48521741 25.75500224 -74.2524097 24.39916294 -72 23 C-69.00085901 21.64744622 -65.99621974 20.38272849 -62.92578125 19.203125 C-58.37822656 17.44278125 -54.00913939 15.51379345 -49.65209961 13.31884766 C-41.20122772 9.12343709 -32.51362067 5.90931884 -23.5625 2.9375 C-22.3780127 2.53120361 -21.19352539 2.12490723 -19.97314453 1.70629883 C-12.88511806 -0.57473882 -7.31231277 -1.57335415 0 0 Z " fill="#FEFEFE" transform="translate(342,124)"/>
<path d="M0 0 C5.63653187 4.92914336 11.1608926 9.87812482 14.11328125 16.90625 C15.23142935 19.54645874 16.6063297 21.99483462 18 24.5 C20.44510974 28.95182859 22.76072767 33.44148134 25 38 C25.34546875 38.63881104 25.6909375 39.27762207 26.046875 39.93579102 C27.07789067 42.16868996 27.55565593 44.1734749 28 46.58984375 C28.165 47.45673828 28.33 48.32363281 28.5 49.21679688 C28.665 50.11462891 28.83 51.01246094 29 51.9375 C29.96773679 57.18066766 30.87454215 62.08316832 33 67 C33.3496418 69.33094534 33.68554487 71.66404762 34 74 C34.33 74.33 34.66 74.66 35 75 C35.32237212 77.57897694 35.51267304 80.15931821 35.71875 82.75 C35.76200665 84.96665352 35.76200665 84.96665352 37 86 C37.22958342 87.96343815 37.39567634 89.93436175 37.53515625 91.90625 C37.62216797 93.12570312 37.70917969 94.34515625 37.79882812 95.6015625 C37.88583984 96.88804687 37.97285156 98.17453125 38.0625 99.5 C38.19881836 101.38332031 38.19881836 101.38332031 38.33789062 103.3046875 C39.80805082 124.39540669 34.50237086 137.92596086 21.078125 154.3515625 C11.47074209 164.86189493 -2.42244006 169.81621482 -15.3828125 174.95703125 C-17.13120951 175.6537805 -18.87603208 176.3595654 -20.6171875 177.07421875 C-27.95409861 180.07365506 -35.16470885 182.11016582 -42.9609375 183.53515625 C-44.98333529 183.80591773 -44.98333529 183.80591773 -46 185 C-47.71039526 185.27585804 -49.43044208 185.49227134 -51.15234375 185.68359375 C-52.78526367 185.86825195 -52.78526367 185.86825195 -54.45117188 186.05664062 C-55.60166016 186.18232422 -56.75214844 186.30800781 -57.9375 186.4375 C-59.02224609 186.55931641 -60.10699219 186.68113281 -61.22460938 186.80664062 C-63.53945871 187.065936 -65.85484482 187.32046951 -68.1706543 187.57104492 C-70.85101411 187.87129307 -73.52365942 188.19018848 -76.19848633 188.5324707 C-87.42706358 189.9352039 -98.50166693 190.36303038 -109.8125 190.3125 C-110.68242584 190.31034485 -111.55235168 190.3081897 -112.44863892 190.30596924 C-122.5584728 190.26580801 -132.64575958 190.16667615 -142.6875 188.875 C-143.89466675 188.7363855 -143.89466675 188.7363855 -145.1262207 188.5949707 C-148.98296958 187.97595458 -151.35438841 187.04157938 -153.85546875 184.10546875 C-154.56316406 183.08066406 -155.27085937 182.05585937 -156 181 C-156.48726563 180.37996094 -156.97453125 179.75992188 -157.4765625 179.12109375 C-160.9048649 174.09524908 -162.15296748 169.08373532 -163.32421875 163.1484375 C-164.00211877 159.99012874 -164.97104534 157.05978624 -166 154 C-169.91374299 138.96298748 -173.30176196 123.55761628 -174 108 C-174.04125 107.13246094 -174.0825 106.26492188 -174.125 105.37109375 C-174.5026612 88.77760476 -173.75069277 70.48548097 -165 56 C-164.31973404 54.31793611 -163.65356033 52.63011915 -163 50.9375 C-159.75002645 43.6958172 -154.63002343 38.43140926 -149 33 C-148.22785156 32.24460937 -147.45570313 31.48921875 -146.66015625 30.7109375 C-139.95657028 24.77511266 -132.20657468 21.84045711 -123.93701172 18.734375 C-121.45590042 17.79371672 -119.01133016 16.77131305 -116.5625 15.75 C-113.31212236 14.44652091 -110.05427111 13.40013983 -106.6875 12.4375 C-103.96322289 11.65732776 -101.98891903 10.99318094 -99.5625 9.5 C-96.22677036 7.54737777 -92.84451647 6.77201001 -89.109375 5.84375 C-86.61165507 5.16597675 -84.24083602 4.39062258 -81.8046875 3.53125 C-75.87386326 1.52458014 -69.79982827 0.57732819 -63.640625 -0.4609375 C-59.64667726 -1.17123141 -56.22136127 -1.90453488 -52.4765625 -3.51953125 C-48.03501255 -5.41093286 -43.758845 -6.03759803 -39 -6.6875 C-38.13632812 -6.81705078 -37.27265625 -6.94660156 -36.3828125 -7.08007812 C-23.23345291 -8.96854998 -10.79178802 -8.41592151 0 0 Z " fill="#F5C7E7" transform="translate(580,449)"/>
</svg>
