<?xml version="1.0" standalone="no"?>
<!DOCTYPE svg PUBLIC "-//W3C//DTD SVG 20010904//EN"
 "http://www.w3.org/TR/2001/REC-SVG-20010904/DTD/svg10.dtd">
<svg version="1.0" xmlns="http://www.w3.org/2000/svg"
 width="1060.000000pt" height="1060.000000pt" viewBox="0 0 1060.000000 1060.000000"
 preserveAspectRatio="xMidYMid meet">
<metadata>
Created by potrace 1.14, written by Peter Selinger 2001-2017
</metadata>
<g transform="translate(0.000000,1060.000000) scale(0.100000,-0.100000)"
fill="#000000" stroke="none">
<path d="M5824 10480 c-11 -4 -47 -11 -80 -15 -32 -4 -63 -11 -69 -15 -5 -3
-32 -15 -60 -25 -27 -10 -59 -24 -70 -32 -11 -7 -27 -13 -35 -13 -9 0 -48 -22
-87 -50 -39 -27 -76 -50 -81 -50 -6 0 -34 -21 -64 -48 -29 -26 -74 -64 -100
-85 -127 -102 -212 -252 -237 -422 -7 -44 -16 -100 -21 -125 -18 -93 -30 -180
-45 -330 -9 -85 -18 -157 -21 -161 -2 -4 0 -193 5 -421 7 -293 13 -422 22
-443 7 -17 16 -88 20 -160 4 -71 13 -164 22 -205 11 -59 15 -165 15 -480 1
-387 3 -425 33 -541 5 -20 9 -61 9 -92 0 -30 9 -84 20 -120 18 -57 29 -73 97
-138 85 -81 175 -132 274 -155 33 -8 70 -20 82 -28 12 -8 54 -18 92 -22 39 -4
81 -11 95 -16 14 -5 65 -14 114 -19 49 -5 96 -15 104 -22 20 -16 243 -15 337
2 125 23 251 78 320 140 22 20 66 54 98 75 64 43 158 151 183 212 19 45 50
112 63 134 5 8 15 42 21 75 7 33 18 78 25 100 7 22 16 55 19 73 3 19 12 48 20
65 15 32 40 110 71 222 20 71 54 153 72 176 7 8 13 25 13 36 0 11 7 26 15 33
8 7 15 23 15 36 0 12 5 26 10 29 6 3 10 16 10 29 0 13 9 31 20 41 12 11 20 31
20 49 0 17 8 47 19 66 10 19 22 55 26 80 4 25 16 59 26 76 10 17 19 45 19 61
0 17 14 60 30 96 17 37 30 84 30 105 0 35 46 185 75 242 7 14 15 43 19 65 7
41 28 100 52 147 8 14 14 31 14 38 0 12 39 101 72 165 12 22 25 63 29 90 4 28
12 70 18 95 5 25 17 83 26 130 9 47 20 105 25 130 15 73 30 210 30 278 0 71
-26 189 -46 213 -8 8 -14 20 -14 25 0 19 -135 154 -153 154 -11 0 -30 9 -44
20 -14 11 -33 20 -42 20 -9 0 -29 8 -46 18 -16 10 -58 26 -92 36 -34 9 -97 34
-140 55 -43 22 -94 42 -113 46 -67 13 -198 53 -221 68 -13 8 -64 24 -114 36
-157 39 -209 54 -230 66 -11 7 -36 16 -55 20 -19 4 -39 11 -45 15 -13 10 -45
17 -178 40 -115 20 -304 26 -343 10z"/>
<path d="M3165 9316 c-88 -29 -195 -72 -239 -95 -43 -22 -103 -49 -135 -58
-31 -10 -74 -28 -96 -40 -22 -12 -78 -41 -124 -63 -46 -23 -97 -50 -113 -61
-30 -22 -178 -190 -218 -249 -13 -19 -45 -61 -72 -93 -59 -72 -132 -221 -149
-303 -22 -110 18 -302 80 -383 51 -66 70 -97 82 -131 6 -19 42 -66 80 -105 37
-38 81 -86 96 -107 15 -20 53 -69 84 -110 32 -40 80 -91 109 -113 29 -22 60
-47 69 -56 9 -9 22 -18 29 -20 17 -5 448 -435 481 -479 34 -47 147 -160 159
-160 5 0 22 -17 38 -37 16 -21 87 -96 159 -168 72 -71 137 -139 145 -151 8
-11 38 -37 66 -57 28 -20 64 -55 80 -78 45 -65 136 -141 219 -183 77 -38 78
-39 171 -34 54 3 100 11 109 18 17 14 53 34 142 79 34 18 65 36 68 41 3 6 13
10 22 10 15 0 99 36 150 63 56 31 135 92 180 140 l51 53 7 128 7 127 -41 102
c-22 56 -41 110 -41 119 0 9 -20 56 -44 105 -24 48 -47 104 -51 123 -4 19 -17
53 -30 75 -12 22 -28 60 -35 85 -8 25 -19 52 -26 60 -6 8 -15 26 -19 40 -4 14
-11 30 -15 35 -4 6 -11 25 -15 42 -3 18 -10 35 -15 38 -5 3 -17 24 -28 48 -60
127 -72 157 -72 171 0 8 -4 18 -10 21 -5 3 -10 16 -10 29 0 21 -61 148 -81
171 -5 5 -9 23 -9 40 0 17 -13 52 -30 78 -43 69 -60 114 -60 162 0 32 -7 52
-25 73 -14 17 -25 34 -25 39 0 6 -9 18 -20 28 -11 10 -20 25 -20 34 -1 9 -9
30 -18 47 -22 39 -69 135 -76 154 -4 8 -20 40 -37 70 -17 30 -40 80 -51 110
-12 30 -33 71 -48 90 -30 39 -58 87 -105 175 -65 121 -78 141 -132 193 -85 82
-147 117 -254 146 -53 14 -105 26 -115 26 -11 0 -91 -25 -179 -54z"/>
<path d="M1460 6859 c-25 -5 -81 -21 -125 -36 -73 -26 -86 -35 -170 -119 -50
-51 -96 -102 -102 -115 -24 -49 -43 -96 -63 -159 -12 -36 -28 -79 -36 -97 -8
-17 -14 -40 -14 -51 0 -11 -9 -41 -19 -66 -11 -25 -29 -101 -41 -168 -11 -68
-27 -153 -35 -189 -8 -37 -15 -78 -15 -92 0 -13 -7 -38 -15 -53 -46 -89 11
-497 81 -575 8 -8 14 -20 14 -26 0 -25 108 -148 174 -198 74 -56 314 -177 383
-194 21 -5 72 -18 113 -29 41 -12 142 -28 224 -37 81 -8 152 -17 156 -20 5 -3
111 -10 237 -15 125 -6 271 -15 323 -20 52 -5 259 -11 460 -12 l365 -3 140 33
c77 19 157 38 178 43 58 15 165 122 210 210 20 39 37 85 37 101 0 17 9 65 19
107 49 193 52 223 54 431 l2 205 -34 90 c-62 166 -85 188 -312 303 -64 32
-130 68 -146 80 -37 26 -243 125 -320 152 -32 12 -89 32 -128 46 -64 22 -108
41 -160 67 -11 6 -31 16 -45 22 -14 7 -45 22 -70 35 -25 13 -72 37 -105 53
-33 16 -69 34 -80 40 -11 5 -49 18 -85 28 -36 9 -96 29 -135 44 -97 37 -259
89 -325 105 -30 7 -62 19 -71 26 -8 7 -46 18 -85 23 -38 6 -114 17 -169 26
-109 16 -195 18 -265 4z"/>
<path d="M8930 6750 c-157 -25 -197 -33 -215 -40 -11 -4 -47 -13 -80 -20 -33
-7 -94 -21 -135 -32 -41 -10 -95 -21 -120 -24 -25 -3 -58 -12 -75 -19 -16 -7
-70 -23 -120 -34 -49 -12 -146 -35 -215 -53 -69 -17 -170 -36 -225 -43 -55 -7
-145 -25 -200 -41 -55 -15 -129 -30 -165 -34 -36 -4 -90 -16 -120 -27 -30 -11
-92 -25 -137 -31 -45 -6 -97 -19 -115 -29 -18 -9 -37 -16 -41 -15 -4 1 -27 -7
-52 -18 -24 -11 -52 -20 -62 -20 -10 0 -56 -14 -103 -30 -46 -17 -91 -30 -100
-30 -8 0 -31 -8 -50 -19 -19 -10 -66 -29 -105 -42 -119 -39 -269 -138 -299
-198 -8 -14 -23 -62 -34 -106 -18 -73 -18 -88 -7 -175 17 -119 28 -174 56
-275 12 -44 28 -101 35 -126 7 -26 36 -96 64 -155 29 -60 56 -118 62 -129 38
-81 186 -217 253 -231 16 -3 37 -12 45 -19 8 -7 42 -15 75 -19 33 -4 85 -12
115 -18 42 -8 119 -8 310 1 140 7 356 14 480 17 124 2 376 8 560 14 184 5 412
10 507 10 94 0 174 4 177 9 3 4 38 12 77 15 39 4 79 11 88 16 16 9 74 25 146
40 78 17 95 22 101 31 3 5 18 9 33 9 15 0 54 8 87 19 32 10 71 21 85 25 15 3
69 41 120 85 93 78 136 135 175 226 21 49 33 248 15 259 -7 5 -11 45 -11 110
0 66 -5 119 -15 146 -8 23 -15 65 -15 92 0 93 -81 384 -145 525 -8 17 -15 41
-15 53 0 13 -16 42 -35 66 -19 23 -35 47 -35 53 0 17 -111 131 -128 131 -8 0
-38 16 -66 35 -43 29 -66 37 -151 49 -150 22 -214 25 -275 16z"/>
<path d="M5470 6179 c-25 -4 -75 -12 -113 -18 -37 -5 -81 -17 -99 -25 -17 -9
-61 -21 -97 -27 -99 -15 -205 -40 -216 -49 -5 -5 -39 -16 -75 -25 -36 -9 -72
-23 -81 -31 -9 -8 -49 -24 -89 -35 -40 -11 -101 -33 -134 -48 -34 -16 -82 -36
-107 -45 -52 -19 -174 -118 -230 -187 -19 -24 -46 -71 -59 -104 -13 -33 -29
-67 -36 -75 -46 -60 -83 -359 -65 -525 18 -160 67 -411 91 -470 4 -11 13 -45
19 -76 11 -53 69 -159 103 -187 43 -36 474 -53 711 -28 256 27 342 39 352 48
5 4 19 8 32 8 36 0 115 21 154 41 20 11 44 19 52 19 8 0 28 6 44 14 15 7 53
24 83 38 226 103 283 144 364 267 74 111 110 198 110 261 0 105 -17 331 -26
336 -4 3 -8 27 -8 54 0 27 -4 52 -10 55 -5 3 -10 21 -10 40 0 19 -4 36 -8 39
-5 3 -14 31 -21 63 -27 124 -30 139 -35 171 -3 19 -15 45 -26 59 -11 14 -20
32 -20 40 0 8 -15 38 -34 66 -18 29 -39 70 -46 91 -17 54 -135 174 -202 207
-49 25 -160 51 -204 48 -11 -1 -39 -5 -64 -10z"/>
<path d="M6359 4647 c-41 -12 -95 -34 -120 -48 -24 -14 -51 -29 -59 -33 -21
-10 -51 -28 -85 -52 -17 -11 -59 -35 -95 -52 -73 -34 -151 -107 -175 -164 -8
-21 -15 -57 -15 -80 0 -40 42 -182 75 -253 8 -17 26 -64 40 -105 30 -82 77
-178 110 -225 12 -16 46 -77 75 -135 30 -58 64 -121 77 -140 12 -19 28 -51 34
-70 7 -19 20 -46 29 -60 9 -14 28 -58 43 -99 15 -40 42 -97 61 -125 18 -28 58
-103 88 -166 50 -107 84 -168 127 -230 10 -14 22 -37 26 -50 4 -14 18 -41 31
-60 13 -19 24 -40 24 -46 0 -6 11 -21 25 -34 30 -29 87 -110 130 -186 17 -30
45 -68 61 -86 41 -43 155 -193 174 -227 36 -66 167 -214 230 -259 25 -18 71
-56 103 -85 64 -58 89 -66 207 -66 104 0 195 21 229 53 15 14 32 26 38 26 30
0 122 37 153 62 19 15 42 28 52 28 10 0 27 14 40 30 12 17 29 30 39 30 25 0
82 50 186 162 51 57 114 124 138 149 25 26 45 50 45 55 0 12 134 165 155 176
18 11 135 166 135 180 0 5 11 24 24 41 92 125 125 218 126 353 0 73 -25 187
-54 239 -9 17 -16 40 -16 53 0 24 -170 207 -250 269 -46 35 -170 146 -244 218
-93 90 -242 221 -280 247 -87 58 -203 139 -245 170 -24 18 -51 36 -60 41 -9 4
-29 16 -46 27 -16 11 -41 24 -55 30 -14 5 -34 15 -45 22 -11 6 -38 20 -60 31
-22 11 -49 24 -60 30 -11 6 -51 26 -90 45 -38 19 -95 55 -125 81 -30 25 -73
55 -95 66 -22 10 -51 27 -65 36 -14 9 -38 19 -55 23 -30 7 -108 40 -135 57 -8
5 -22 12 -30 15 -8 3 -28 12 -45 19 -16 7 -48 16 -70 20 -22 4 -49 13 -60 19
-33 21 -145 44 -235 49 -68 4 -100 1 -161 -16z"/>
<path d="M3505 4509 c-33 -5 -110 -15 -171 -23 -62 -8 -127 -21 -145 -29 -19
-8 -72 -29 -119 -47 -47 -18 -96 -40 -110 -50 -14 -9 -36 -21 -50 -25 -49 -14
-164 -78 -269 -149 -58 -40 -142 -94 -186 -120 -45 -27 -109 -77 -145 -114
-36 -37 -110 -105 -164 -152 -54 -47 -109 -101 -122 -120 -13 -19 -45 -61 -71
-92 -27 -31 -67 -80 -91 -110 -53 -66 -137 -168 -179 -218 -36 -41 -124 -169
-163 -236 -87 -149 -111 -198 -135 -274 -48 -151 -75 -222 -94 -249 -10 -14
-32 -69 -50 -121 -28 -84 -31 -108 -31 -210 0 -76 6 -136 16 -175 9 -33 20
-78 23 -100 4 -23 23 -83 42 -135 28 -78 44 -104 92 -156 31 -34 73 -69 92
-78 19 -9 37 -21 40 -26 10 -16 106 -84 140 -99 17 -7 39 -18 50 -24 11 -6 41
-21 67 -34 25 -13 69 -39 97 -57 31 -21 70 -37 99 -42 44 -6 62 -12 146 -49
32 -14 83 -27 161 -42 17 -3 38 -13 48 -22 10 -8 46 -19 80 -22 34 -4 107 -12
162 -18 166 -19 469 13 515 54 9 8 20 15 25 15 20 0 126 80 185 140 96 98 202
254 264 390 6 14 23 44 39 67 15 22 30 55 34 73 3 18 23 64 43 104 21 40 40
87 43 106 13 78 33 150 45 162 6 6 12 20 12 29 0 9 6 22 14 28 16 13 36 93 36
142 0 18 12 45 30 67 17 22 32 55 36 82 4 25 10 50 14 55 4 6 19 51 35 100 15
50 31 95 35 100 9 12 60 103 104 190 17 33 46 80 64 104 17 24 32 51 32 60 0
9 6 25 14 36 7 11 25 53 39 92 15 40 40 99 56 130 17 32 33 70 37 86 3 15 10
30 15 33 5 3 9 15 9 28 0 12 4 26 8 31 5 6 17 38 27 72 29 99 13 268 -33 349
-35 65 -163 188 -253 246 -15 9 -53 40 -85 68 -33 29 -88 68 -124 87 -36 20
-72 42 -80 49 -22 18 -158 54 -200 53 -19 -1 -62 -6 -95 -10z"/>
<path d="M5110 4185 c-92 -10 -194 -29 -225 -41 -16 -7 -77 -45 -148 -92 -59
-39 -167 -156 -167 -180 0 -5 -7 -15 -15 -22 -8 -7 -17 -28 -21 -49 -4 -20
-13 -43 -20 -52 -16 -18 -53 -125 -54 -155 0 -11 -7 -29 -15 -40 -8 -10 -15
-30 -15 -44 0 -15 -5 -31 -12 -38 -7 -7 -15 -56 -19 -109 -4 -54 -12 -141 -18
-193 -6 -52 -15 -133 -20 -180 -6 -47 -17 -139 -26 -205 -46 -347 -61 -680
-41 -908 12 -135 16 -304 16 -695 0 -536 3 -575 46 -742 9 -36 29 -90 45 -120
16 -30 29 -59 29 -64 0 -4 17 -29 39 -55 29 -35 52 -51 94 -65 59 -20 110 -19
392 3 61 5 180 14 265 20 85 7 193 18 240 27 226 41 265 56 422 162 25 18 50
32 55 32 11 0 142 136 169 175 11 17 26 52 33 80 7 27 16 54 21 60 33 40 50
477 31 800 -22 372 -29 460 -40 520 -5 33 -17 126 -26 208 -9 81 -22 165 -30
186 -7 22 -17 73 -21 113 -3 40 -10 80 -15 89 -5 9 -13 61 -19 115 -19 183
-31 279 -40 314 -5 19 -14 85 -20 145 -15 152 -31 233 -77 405 -51 187 -133
391 -168 420 -8 7 -15 18 -15 26 0 27 -69 68 -152 90 -46 12 -103 29 -128 37
-58 19 -158 37 -196 36 -16 -1 -76 -7 -134 -14z"/>
</g>
</svg>
