<?xml version="1.0" encoding="UTF-8"?>
<!DOCTYPE svg PUBLIC "-//W3C//DTD SVG 1.1//EN" "http://www.w3.org/Graphics/SVG/1.1/DTD/svg11.dtd">
<svg xmlns="http://www.w3.org/2000/svg" version="1.1" width="1060px" height="1060px" style="shape-rendering:geometricPrecision; text-rendering:geometricPrecision; image-rendering:optimizeQuality; fill-rule:evenodd; clip-rule:evenodd" xmlns:xlink="http://www.w3.org/1999/xlink">
<g><path style="opacity:1" fill="#fdfefd" d="M 583.5,10.5 C 600.468,9.60592 617.135,11.4392 633.5,16C 637.619,17.3641 641.619,19.0307 645.5,21C 665.554,25.594 685.22,31.2607 704.5,38C 716.428,44.062 728.761,49.062 741.5,53C 760.321,61.3332 769.654,75.8332 769.5,96.5C 769.143,104.88 768.31,113.214 767,121.5C 764.006,135.461 761.34,149.461 759,163.5C 753.431,174.527 748.431,185.86 744,197.5C 740.973,207.898 737.64,218.232 734,228.5C 734.05,236.072 732.05,243.072 728,249.5C 728.193,254.352 726.86,258.685 724,262.5C 722.251,270.3 720.251,277.967 718,285.5C 717,286.5 716,287.5 715,288.5C 711.863,298.436 707.863,308.103 703,317.5C 700.123,329.461 696.457,341.128 692,352.5C 689.574,361.048 687.574,369.715 686,378.5C 682.444,384.131 679.444,390.131 677,396.5C 673.167,401 669.333,405.5 665.5,410C 656.888,415.613 648.554,421.613 640.5,428C 626.773,433.712 612.439,436.545 597.5,436.5C 580.575,433.758 563.575,430.924 546.5,428C 541.902,425.264 536.902,423.597 531.5,423C 519.663,418.657 509.83,411.491 502,401.5C 498.266,393.25 496.599,384.583 497,375.5C 496,371.167 495,366.833 494,362.5C 493.045,334.154 492.712,305.821 493,277.5C 490.09,264.687 488.756,251.687 489,238.5C 488.138,236.913 487.471,235.246 487,233.5C 485.615,205.178 484.948,176.844 485,148.5C 487.053,124.963 490.386,101.629 495,78.5C 498.888,65.269 506.055,54.1024 516.5,45C 521.42,42.0844 525.753,38.4177 529.5,34C 535.644,31.0931 541.311,27.4265 546.5,23C 558.474,17.2872 570.807,13.1205 583.5,10.5 Z"/></g>
<g><path style="opacity:1" fill="#fdfefd" d="M 331.5,122.5 C 344.959,123.355 356.959,127.855 367.5,136C 369.667,139.5 372.5,142.333 376,144.5C 381.885,156.806 388.885,168.472 397,179.5C 404.847,199.53 414.514,218.53 426,236.5C 426.224,245.838 429.224,254.171 435,261.5C 436.606,269.051 439.606,276.051 444,282.5C 445.346,287.869 447.012,293.202 449,298.5C 454.763,308.453 459.763,318.786 464,329.5C 472.334,350.834 480.667,372.168 489,393.5C 489.703,403.296 489.036,412.963 487,422.5C 476.169,434.033 463.336,442.199 448.5,447C 441.073,451.146 433.74,455.479 426.5,460C 404.335,463.506 387.168,455.673 375,436.5C 371.642,433.642 368.142,430.975 364.5,428.5C 356.125,419.114 347.291,410.114 338,401.5C 335.667,398.5 333.333,395.5 331,392.5C 329.829,391.107 328.329,390.273 326.5,390C 323.333,385.5 319.5,381.667 315,378.5C 312.72,374.553 310.053,370.887 307,367.5C 297.167,359 288,349.833 279.5,340C 268.642,330.833 257.809,321.666 247,312.5C 238.853,300.572 229.52,289.572 219,279.5C 216.536,271.904 212.536,265.237 207,259.5C 200.139,244.835 199.139,229.835 204,214.5C 206.73,208.707 209.73,203.04 213,197.5C 222.748,184.414 233.248,171.914 244.5,160C 254.183,155.494 263.516,150.494 272.5,145C 282.287,142.108 291.621,138.108 300.5,133C 310.979,129.563 321.312,126.063 331.5,122.5 Z"/></g>
<g><path style="opacity:1" fill="#fdfefd" d="M 149.5,372.5 C 163.955,372.765 178.288,374.265 192.5,377C 213.824,383.774 235.157,390.774 256.5,398C 267.625,403.396 278.625,409.063 289.5,415C 302.133,419.657 314.8,424.323 327.5,429C 346.52,439.367 365.52,449.7 384.5,460C 388.798,464.097 391.965,468.931 394,474.5C 395.103,479.372 396.77,484.038 399,488.5C 399.538,503.181 399.205,517.848 398,532.5C 395.507,543.47 393.174,554.47 391,565.5C 386.811,577.357 379.311,586.524 368.5,593C 351.855,597.962 334.855,600.796 317.5,601.5C 297.508,600.769 277.508,600.269 257.5,600C 226.358,598.901 195.358,596.235 164.5,592C 142.496,587.329 122.496,578.329 104.5,565C 84.7759,544.162 76.9426,519.329 81,490.5C 85.0518,475.81 88.0518,460.81 90,445.5C 94.5981,429.437 100.265,413.771 107,398.5C 112.5,391.667 118.667,385.5 125.5,380C 133.401,376.753 141.401,374.253 149.5,372.5 Z"/></g>
<g><path style="opacity:1" fill="#fdfefd" d="M 897.5,383.5 C 907.208,384.264 916.875,385.431 926.5,387C 932.318,389.41 937.985,392.077 943.5,395C 950.181,401.561 956.015,408.727 961,416.5C 963.378,425.327 966.378,433.994 970,442.5C 977.879,471.41 981.879,500.743 982,530.5C 980.291,538.584 976.958,545.917 972,552.5C 966.5,557.333 961,562.167 955.5,567C 933.532,574.561 911.198,580.561 888.5,585C 824.932,586.183 761.432,588.017 698,590.5C 684.29,590.119 671.123,587.619 658.5,583C 650.048,578.215 643.214,571.715 638,563.5C 624.431,538.45 616.265,511.617 613.5,483C 615.235,477.561 616.735,472.061 618,466.5C 619.738,462.759 622.238,459.592 625.5,457C 630.833,453.667 636.167,450.333 641.5,447C 659.463,440.735 677.463,434.568 695.5,428.5C 696.086,428.709 696.586,429.043 697,429.5C 698.579,427.959 700.413,426.792 702.5,426C 712.813,424.894 722.813,422.561 732.5,419C 743.717,417.78 754.717,415.446 765.5,412C 790.279,408.221 814.612,402.721 838.5,395.5C 839.086,395.709 839.586,396.043 840,396.5C 850.445,393.291 860.945,390.458 871.5,388C 880.303,386.489 888.969,384.989 897.5,383.5 Z"/></g>
<g><path style="opacity:1" fill="#f4c7e6" d="M 550.5,440.5 C 560.625,440.481 569.958,442.981 578.5,448C 582.333,451.833 586.167,455.667 590,459.5C 594.609,469.091 599.609,478.425 605,487.5C 608.251,503.489 611.917,519.155 616,534.5C 616.443,545.364 617.276,556.197 618.5,567C 617.048,575.024 614.214,582.524 610,589.5C 604.921,597.914 598.421,605.081 590.5,611C 572.143,620.359 553.143,627.692 533.5,633C 505.676,637.684 477.676,639.351 449.5,638C 442.488,637.066 435.488,636.066 428.5,635C 420.917,627.334 416.417,618.167 415,607.5C 410.297,588.743 407.13,569.743 405.5,550.5C 405.595,536.462 407.762,522.796 412,509.5C 417.215,495.936 425.715,484.769 437.5,476C 444.414,472.474 451.414,469.14 458.5,466C 471.717,461.743 484.717,457.076 497.5,452C 515.304,448.277 532.971,444.444 550.5,440.5 Z"/></g>
<g><path style="opacity:1" fill="#fdfefd" d="M 642.5,592.5 C 653.047,592.555 663.38,594.055 673.5,597C 686.811,601.242 699.811,606.242 712.5,612C 716.617,614.708 720.95,617.041 725.5,619C 728.535,622.37 731.868,625.37 735.5,628C 750.736,635.294 765.736,642.961 780.5,651C 791.325,658.913 802.325,666.58 813.5,674C 829.328,690.06 845.995,705.06 863.5,719C 871.337,726.504 878.837,734.337 886,742.5C 887.942,748.471 889.942,754.471 892,760.5C 894.875,773.652 893.542,786.318 888,798.5C 881.667,808.167 875.333,817.833 869,827.5C 863.228,832.36 857.895,837.694 853,843.5C 842.34,858.17 830.173,871.67 816.5,884C 814.608,884.973 812.608,885.64 810.5,886C 808.961,889.544 806.294,891.544 802.5,892C 796.742,896.789 790.076,899.789 782.5,901C 778.265,905.662 772.932,907.995 766.5,908C 752.127,911.529 740.46,907.696 731.5,896.5C 727.742,894.539 724.242,892.205 721,889.5C 709.123,872.947 696.456,856.947 683,841.5C 681.318,838.136 679.651,834.802 678,831.5C 674.045,825.877 669.712,820.543 665,815.5C 662.393,810.62 660.06,805.62 658,800.5C 650.062,788.965 643.395,776.631 638,763.5C 636.579,760.991 634.912,758.657 633,756.5C 624.525,734.366 613.858,713.366 601,693.5C 593.544,677.13 586.878,660.463 581,643.5C 579.791,637.114 580.791,631.114 584,625.5C 587.167,622.333 590.333,619.167 593.5,616C 605.089,610.067 616.422,603.734 627.5,597C 632.747,595.928 637.747,594.428 642.5,592.5 Z"/></g>
<g><path style="opacity:1" fill="#fdfefd" d="M 355.5,607.5 C 363.432,607.566 371.099,609.066 378.5,612C 383.334,615.252 388.334,618.252 393.5,621C 402.259,629.096 411.593,636.429 421.5,643C 435.565,655.327 441.065,670.827 438,689.5C 435.125,698.207 432.125,706.874 429,715.5C 423.942,726.012 419.275,736.679 415,747.5C 401.324,766.187 391.991,786.854 387,809.5C 385.71,811.792 384.043,813.792 382,815.5C 382.201,824.907 379.535,833.241 374,840.5C 372.818,846.892 371.484,853.226 370,859.5C 364.232,873.933 357.565,887.933 350,901.5C 344.913,909.341 339.58,917.008 334,924.5C 325.957,933.222 316.791,940.388 306.5,946C 282.676,952.463 258.676,953.13 234.5,948C 232.884,947.385 231.551,946.385 230.5,945C 217.182,942.111 204.182,938.445 191.5,934C 181.848,927.903 171.848,922.57 161.5,918C 155.758,913.25 149.758,908.917 143.5,905C 133.627,896.756 127.46,886.256 125,873.5C 124.082,867.411 122.748,861.411 121,855.5C 118.815,840.227 120.815,825.56 127,811.5C 130.28,807.342 132.613,802.675 134,797.5C 135.732,789.971 138.065,782.638 141,775.5C 151.524,755.121 164.524,736.455 180,719.5C 188.05,709.785 195.716,699.785 203,689.5C 214.727,679.561 225.894,669.061 236.5,658C 249.345,650.747 261.678,642.747 273.5,634C 289.412,625.046 306.078,617.713 323.5,612C 334.344,610.703 345.011,609.203 355.5,607.5 Z"/></g>
<g><path style="opacity:1" fill="#fdfefd" d="M 520.5,639.5 C 527.241,639.684 533.908,640.518 540.5,642C 549.549,645.016 558.549,648.016 567.5,651C 570.177,654.043 572.677,657.21 575,660.5C 584.044,679.631 590.71,699.631 595,720.5C 598.32,744.452 601.32,768.452 604,792.5C 616.667,854.152 621.334,916.486 618,979.5C 616.084,986.793 614.084,994.126 612,1001.5C 606.908,1008.6 601.074,1015.1 594.5,1021C 585.833,1026 577.167,1031 568.5,1036C 559.262,1038.43 549.929,1040.43 540.5,1042C 513.202,1044.64 485.869,1046.31 458.5,1047C 455.911,1045.8 453.244,1044.8 450.5,1044C 444.004,1036.88 439.17,1028.71 436,1019.5C 433.701,1011.64 432.034,1003.64 431,995.5C 430.667,958.5 430.333,921.5 430,884.5C 428.78,872.192 427.946,859.858 427.5,847.5C 428.524,830.827 429.691,814.16 431,797.5C 434.541,770.216 437.541,742.882 440,715.5C 444.078,702.001 448.744,688.667 454,675.5C 457.706,669.118 462.206,663.285 467.5,658C 474.2,653.654 480.867,649.321 487.5,645C 498.52,642.468 509.52,640.635 520.5,639.5 Z"/></g>
</svg>
